<svg xmlns="http://www.w3.org/2000/svg" viewBox="0 0 40.1 46.49"><defs><style>.cls-1{fill:#fff;}</style></defs><title>Asset 22</title><g id="Layer_2" data-name="Layer 2"><g id="Layer_2-2" data-name="Layer 2"><path class="cls-1" d="M17,.86,2.3,13.18A23.31,23.31,0,0,1,17,.86Z"/><path class="cls-1" d="M40.1,29.51V31.6L22.38,46.47A23.24,23.24,0,0,1,1,16.37L20.32.19A21.7,21.7,0,0,1,23.24,0h9.53a6.3,6.3,0,0,1,0,12.59H23.24a10.66,10.66,0,0,0,0,21.32h4.28v-4.4a6.29,6.29,0,1,1,12.58,0Z"/><polygon class="cls-1" points="40.1 33.73 40.1 37.31 29.16 46.49 24.89 46.49 40.1 33.73"/><path class="cls-1" d="M31.7,46.49l8.4-7.05v.76a6.29,6.29,0,0,1-6.29,6.29Z"/></g></g></svg>