<svg xmlns="http://www.w3.org/2000/svg" viewBox="0 0 170.08 137.18"><defs><style>.cls-1{fill:#4071d5;}.cls-2{fill:#ccf;}.cls-3{fill:#fff;}.cls-4{fill:none;}</style></defs><title>Asset 19</title><g id="Layer_2" data-name="Layer 2"><g id="Layer_2-2" data-name="Layer 2"><rect class="cls-1" width="170.08" height="113.39"/><rect class="cls-2" y="113.39" width="170.08" height="3.35"/><rect class="cls-2" x="53.02" y="130.25" width="64.04" height="3.61"/><rect class="cls-2" x="78.28" y="116.74" width="13.51" height="13.51"/><rect class="cls-2" x="52.83" y="135.28" width="64.04" height="1.9"/><path class="cls-2" d="M119.81,16.79c.31-.5.58.75,1.11,0,0-.21-.42-.34-.15-.59,1.52-.63,2.55-2.45,3.46-3.9,0,.39.53.72.34,1.17-.25.76-1.61,1.55-.52,2.28a4.67,4.67,0,0,1,.93,3.54c1.28,1.31,2.7-.72,4.08.49a1.11,1.11,0,0,1-.38,1c-.75.68-1.91.26-2.5,1.11.25.37.65.67.66,1.14-.22,1.3-.18,2.78-.45,3.83-.57-.14-.93-.79-1.48-.75,0,.46-.76.54-.39,1.09-.26.39-.79.14-1.13,0-.4.49,1,2-.07,1.66-.39.3-.38-.49-.53-.62a1.17,1.17,0,0,0,.22-.37c-1.1-.86-1.66-2.13-2.72-3-1.07.49-1.06,1.88-2,2.67-.13-.32.33-.79.3-1.2l-.42-.91c-1.2.26-1.36-.93-2.26-1.08.16-.16.6-.25.77-.5.78-.28-.16-1,.38-1.37-.2-.49-.92-.52-1.32-.82-.49.29-1,0-1.4.34-.53.07,0-.55-.26-.74,1-.19,2.29,0,3.2-.65-.35-.61.71-.2.29-.78l-.53-.25c.2-.08.33-.23.23-.47a4.6,4.6,0,0,0-1.06-.54c.18-.13.58-.19.62-.54l-.48-.6a2.27,2.27,0,0,0,2,.27c.1-.33-.43-.48-.34-.61.13.09.42.34.62.26a3.43,3.43,0,0,0-.82-2.47c.18.21.17-.16.29-.21A15.75,15.75,0,0,0,119.81,16.79Z"/><path class="cls-2" d="M139.71,9.17c-.14.57-.75.22-1.1.27-.07.4-.39.53-.63.77a1.84,1.84,0,0,0-.11,1.54c.28.35.5,1.34,1.08.82.27,1,1-.25,1.59.24.44-.32.5-1.09.81-1.59C141,10.22,140.82,9.37,139.71,9.17Z"/><path class="cls-2" d="M154,7.67c.45.19,1.24-.27,1.5.14a.36.36,0,0,0,.15.59c.29,0,.49-.29.79-.13.09,1.13.64.76,1.05,1.77.42.1.74-.36,1.06-.62.13.22-.21.17-.24.33,1.09-.31,1.82-1.26,2.9-1.7-.16.16.16.49.2.48l-1.81,1.39c.09,2.07,1.15,3.51,2.59,5,.37.45,1.19-.4,1.11.43-.72.86-2.14-.1-2.66.81a21.55,21.55,0,0,1-1,3.4c-.51.58-.92-.88-1.36.09.08.2.3.4.22.66-.41,0-.66-.81-1.18-.36-.16.3.34.61-.14.8-.46,0-.23-.79-.82-.64-.95-.27-.29.77-.83.95a1,1,0,0,1-.37-.79,3.11,3.11,0,0,0-1.42-.26,1.4,1.4,0,0,1-.26.85c-.33-.47-.34-1.3-.93-1.72-.61-.22-.23.7-.81.43-.05-.36.31-.84.07-1.2l-.9-.15c-.73-1.67-.39-3.35-1.36-4.92a6.92,6.92,0,0,0,.23-3.09c.45.05.81.14,1.13-.23,0-.28.08-.59.11-.88.22-.14.45.09.65-.13l.09-.69c.48,0,1,.27,1.36,0s.23-.57.29-.87C153.7,7.34,153.88,7.55,154,7.67Z"/><path class="cls-2" d="M149,17.26c0-.92-1-.58-1.31-1.25-.33.23-.55-.43-.91-.05-.71-.59-.69.94-1.38.29,0,.41-.08.83-.56.79.43.38,0,.8-.23,1.17,0,.25.39.26.47.46a1.06,1.06,0,0,1-.12.85c.83-.49.47.69,1.25.65,1.3.55,1.92-.69,2.69-1.09C148.39,18.26,149.61,18,149,17.26Z"/><path class="cls-2" d="M143,30.42c-.19.22-.34.66-.67.42a.45.45,0,0,1,0-.72C142.66,30,143,30.13,143,30.42Z"/><path class="cls-2" d="M144.34,32.17c.56,1.13,2.09.41,3,1.2.4.4-.4.63-.12,1.08.24-.1.53-.08.71-.2,0,.25-.58.52-.24.9a3,3,0,0,0,1.23.71c.21,1-1.91,2.09-.13,2.67-.35,0-.73-.31-1-.05-.23.46,1,1.16.07,1.42-.18-.07-.39-.13-.42.12-.26.53.68.75.38,1.16-.71-.23-1.45.12-2-.5-.54-.06-.61.67-.88.83-.7.33-.85-.83-1.58-.67A2.11,2.11,0,0,1,142,42c.16-.77-.65-.58-1-.68.31-1.2-1.43-1-1.28-2-.19.12-.34.42-.56.23.09-.46.92-.38.56-1-.23-.23.08-.73-.36-.88-.19-.11-.53.31-.58,0,.5-.49.5-1.42.67-2.15.15-.43.79,0,.69-.6-.14-.23-.55-.2-.56-.57,1.08-.68,2.84-1.07,3.57-2.49A1.27,1.27,0,0,1,144.34,32.17Z"/><path class="cls-2" d="M139.88,20.63c-.37-.09-.72-.37-1.16-.19-.61.11-.61.91-.69,1.41.1.47.54.62.89.8s.59-.28.8,0c0-.45.48-.43.55-.84A1.18,1.18,0,0,0,139.88,20.63Z"/><path class="cls-2" d="M27.58,65.08c.59.1-.49.85.46,1,.22,0,.16-.54.51-.38,1.18,1.21,3.32,1.49,5.05,1.79-.38.12-.48.78-1,.78-.82.05-2.11-.94-2.37.38a4.81,4.81,0,0,1-3,2.27c-.75,1.73,1.74,2.29,1.12,4.08a1.13,1.13,0,0,1-1.1,0c-.94-.45-1-1.71-2-1.95-.26.38-.39.88-.83,1.07-1.33.3-2.72.91-3.83,1.06-.09-.6.39-1.2.15-1.7-.45.18-.82-.52-1.2,0-.47-.1-.44-.7-.43-1.08-.63-.2-1.47,1.75-1.62.58-.43-.25.33-.56.39-.75a1.16,1.16,0,0,0,.44.07C18.68,71,19.67,70,20.1,68.65c-.88-.82-2.21-.27-3.3-.82.25-.25.88,0,1.26-.17l.7-.75c-.71-1,.37-1.67.16-2.59.22.1.46.48.78.55.56.63.85-.53,1.45-.17.38-.38.14-1.08.27-1.58-.47-.35-.37-.95-.87-1.21-.28-.47.51-.24.61-.53.58.93.89,2.19,1.86,2.8.44-.56.46.6.85,0l0-.6a.34.34,0,0,0,.53,0,5,5,0,0,0,.11-1.23c.19.13.4.48.75.38l.39-.68a2.31,2.31,0,0,0,.51,2c.35,0,.29-.6.45-.57,0,.16-.17.54,0,.7a3.53,3.53,0,0,0,2-1.75c-.13.25.22.1.31.2A16.72,16.72,0,0,0,27.58,65.08Z"/><path class="cls-2" d="M49.54,94.16c0,.51.75,1.08.46,1.49-.28-.1-.48.09-.51.37s.47.35.43.7c-1,.52-.48.91-1.28,1.69.06.44.63.57,1,.77-.16.21-.25-.13-.4-.1.71.92,1.9,1.25,2.75,2.11-.22-.1-.42.34-.39.37l-2-1.19c-1.93.9-2.9,2.46-3.74,4.41-.29.53.84,1,0,1.22-1.1-.35-.73-2.08-1.8-2.22a22.56,22.56,0,0,1-3.63.37c-.76-.26.48-1.22-.62-1.27-.16.16-.26.44-.54.47-.19-.38.51-.94-.11-1.26-.35,0-.45.56-.82.18-.19-.45.66-.53.29-1-.11-1-.85,0-1.22-.42,0-.29.35-.54.6-.66a3.18,3.18,0,0,0-.3-1.45,1.5,1.5,0,0,1-.91.08c.32-.5,1.11-.84,1.28-1.56,0-.66-.76,0-.72-.61.32-.18.91,0,1.17-.39l-.21-.92c1.31-1.34,3-1.67,4.16-3.2a7.08,7.08,0,0,0,3-1c.12.45.18.82.65,1,.28-.09.6-.15.89-.24.21.15.08.47.37.57l.69-.18c.16.47.12,1,.52,1.29s.63,0,.95,0C49.74,93.72,49.61,94,49.54,94.16Z"/><path class="cls-2" d="M39.14,91.37c-.35-.23.2-.69-.31-.89.3-.91-1.16-.29-.8-1.2-.38.18-.82.24-1-.23-.19.56-.76.3-1.2.23-.25.06-.1.48-.26.63a1.06,1.06,0,0,1-.85.21c.78.61-.48.72-.14,1.45,0,1.45,1.4,1.56,2.09,2.14.57-.82,1.25.26,1.77-.62C39.31,92.7,38.63,91.93,39.14,91.37Z"/><path class="cls-2" d="M23.59,92.49c-.29-.1-.76-.07-.66-.48a.46.46,0,0,1,.7-.24C23.85,92,23.87,92.4,23.59,92.49Z"/><path class="cls-2" d="M22.43,94.43c-.86,1,.42,2.15,0,3.34-.23.54-.76-.13-1.08.31.19.19.28.47.47.6-.25.06-.72-.35-1,.12a3.2,3.2,0,0,0-.2,1.44c-.86.59-2.73-1-2.6.92-.18-.32,0-.82-.33-1-.54,0-.71,1.44-1.33.62,0-.19,0-.41-.28-.35-.6,0-.46.94-1,.81,0-.76-.68-1.34-.29-2.09-.15-.54-.88-.32-1.13-.52-.59-.54.45-1.12,0-1.76A2.18,2.18,0,0,1,12.14,96c.79-.15.29-.85.26-1.19,1.27-.18.4-1.76,1.41-2-.19-.12-.53-.16-.43-.44.47-.09.71.73,1.19.14.13-.32.73-.21.7-.69,0-.22-.5-.38-.18-.57.66.29,1.55-.07,2.3-.19.48,0,.31.76.85.42.16-.22,0-.6.32-.76,1.07.77,2.12,2.3,3.76,2.44A1.3,1.3,0,0,1,22.43,94.43Z"/><path class="cls-3" d="M88.23,81.8a23.2,23.2,0,0,1,0-46.39h9.53a6.24,6.24,0,0,1,0,12.48H88.23a10.71,10.71,0,0,0,0,21.42h4.28l0-4.44a6.24,6.24,0,1,1,12.48,0V75.55A6.25,6.25,0,0,1,98.8,81.8Z"/><path class="cls-1" d="M97.76,35.46a6.19,6.19,0,0,1,0,12.38H88.23a10.76,10.76,0,0,0,0,21.52h4.38V64.87a6.19,6.19,0,0,1,12.38,0V75.55a6.2,6.2,0,0,1-6.19,6.2H88.23a23.15,23.15,0,0,1,0-46.29h9.53m0-.1H88.23a23.25,23.25,0,0,0,0,46.49H98.8a6.3,6.3,0,0,0,6.29-6.3V64.87a6.29,6.29,0,0,0-12.58,0v4.39H88.23a10.66,10.66,0,0,1,0-21.32h9.53a6.29,6.29,0,0,0,0-12.58Z"/><path class="cls-1" d="M85.3,35.55,66,51.73a22.16,22.16,0,0,1,1.24-3.17L82,36.22A21.58,21.58,0,0,1,85.3,35.55Z"/><path class="cls-1" d="M105.09,67v2.12L89.86,81.85H88.23l-.88,0Z"/><polygon class="cls-1" points="105.09 72.66 105.09 74.78 96.67 81.85 94.13 81.85 105.09 72.66"/><path class="cls-4" d="M105.09,64.87V75.55a6.3,6.3,0,0,1-6.29,6.3H88.23l-.88,0A23.27,23.27,0,0,1,65,58.6a23,23,0,0,1,1-6.87,22.16,22.16,0,0,1,1.24-3.17A23.32,23.32,0,0,1,82,36.22a21.58,21.58,0,0,1,3.33-.67,21.85,21.85,0,0,1,2.93-.19h9.53a6.29,6.29,0,0,1,0,12.58H88.23a10.66,10.66,0,0,0,0,21.32H92.5V64.87a6.3,6.3,0,0,1,12.59,0Z"/><polygon class="cls-2" points="29.73 0 0 24.95 0 6.93 8.26 0 29.73 0"/><polygon class="cls-2" points="170.08 95.51 170.08 113.39 148.77 113.39 170.08 95.51"/><polygon class="cls-2" points="170.08 75.47 170.08 93.49 146.36 113.39 124.89 113.39 170.08 75.47"/><rect class="cls-4" width="170.08" height="113.39"/></g></g></svg>